<svg width="480" height="478" viewBox="0 0 480 478" fill="none" xmlns="http://www.w3.org/2000/svg">
<rect width="480" height="478" fill="#0050A2"/>
<path d="M138.478 257.823H173.302V221.899L231.434 205V257.823H272.819V296.524H231.434V355.495C231.434 374.858 236.353 384.688 255.056 384.688C260.991 384.688 267.222 383.451 273.149 382.546L275.105 418.478C263.946 419.697 252.778 421.543 237.987 421.543C185.121 421.543 172.294 399.724 172.294 361.633V296.524H138.478V257.823Z" fill="white"/>
<path d="M138.478 257.823H173.302V221.899L231.434 205V257.823H272.819V296.524H231.434V355.495C231.434 374.858 236.353 384.688 255.056 384.688C260.991 384.688 267.222 383.451 273.149 382.546L275.105 418.478C263.946 419.697 252.778 421.543 237.987 421.543C185.121 421.543 172.294 399.724 172.294 361.633V296.524H138.478V257.823Z" stroke="#0050A2" stroke-width="5.67266"/>
<path d="M61 205.809H120.478V417.864H61V205.809Z" fill="white"/>
<path d="M61 205.809H120.47V417.864H61V205.809Z" stroke="#0050A2" stroke-width="5.67266"/>
</svg>
