<svg width="588" height="586" viewBox="0 0 588 586" fill="none" xmlns="http://www.w3.org/2000/svg">
<rect width="588" height="586" fill="white"/>
<rect width="480" height="478" transform="translate(54 54)" fill="#0050A2"/>
<path d="M192.479 311.823H227.302V275.899L285.434 259V311.823H326.819V350.524H285.434V409.495C285.434 428.858 290.353 438.688 309.056 438.688C314.991 438.688 321.222 437.451 327.149 436.546L329.105 472.478C317.946 473.697 306.778 475.543 291.987 475.543C239.121 475.543 226.294 453.724 226.294 415.633V350.524H192.479V311.823Z" fill="white"/>
<path d="M192.479 311.823H227.302V275.899L285.434 259V311.823H326.819V350.524H285.434V409.495C285.434 428.858 290.353 438.688 309.056 438.688C314.991 438.688 321.222 437.451 327.149 436.546L329.105 472.478C317.946 473.697 306.778 475.543 291.987 475.543C239.121 475.543 226.294 453.724 226.294 415.633V350.524H192.479V311.823Z" stroke="#0050A2" stroke-width="5.67266"/>
<path d="M115 259.809H174.478V471.864H115V259.809Z" fill="white"/>
<path d="M115 259.809H174.47V471.864H115V259.809Z" stroke="#0050A2" stroke-width="5.67266"/>
</svg>
